<svg width="28" height="18" viewBox="0 0 28 18" fill="none" xmlns="http://www.w3.org/2000/svg">
<path fill-rule="evenodd" clip-rule="evenodd" d="M21.2387 4.71675C22.4965 4.71675 23.5141 3.74506 23.5141 2.54583C23.5141 1.34666 22.4965 0.375 21.2387 0.375C19.9809 0.375 18.9611 1.34666 18.9611 2.54583C18.9611 3.74506 19.9809 4.71675 21.2387 4.71675ZM21.3714 17.8621H15.6726L14.5817 17.875L14.5909 17.8621H0.824217C0.412586 17.8621 0.252505 17.5932 0.476617 17.2588L10.1499 2.57166C10.3695 2.23809 10.7307 2.23132 10.9572 2.55581L17.9777 12.7051L20.6121 8.6955C20.8317 8.36331 21.1976 8.35431 21.4308 8.67569L27.5137 17.0296C27.7471 17.3505 27.5945 17.8501 27.1875 17.8621L21.7812 17.8626H21.3691L21.3714 17.8621Z" fill="#A22104"/>
</svg>
