<svg width="40" height="42" viewBox="0 0 40 42" fill="none" xmlns="http://www.w3.org/2000/svg">
<path d="M11.6797 16.4502C11.6797 17.1533 11.4323 17.7458 10.9375 18.2275C10.4427 18.7093 9.85677 18.9502 9.17969 18.9502C8.47656 18.9502 7.88411 18.7093 7.40234 18.2275C6.92057 17.7458 6.67969 17.1533 6.67969 16.4502C6.67969 15.7731 6.92057 15.1872 7.40234 14.6924C7.88411 14.1976 8.47656 13.9502 9.17969 13.9502C9.85677 13.9502 10.4427 14.1976 10.9375 14.6924C11.4323 15.1872 11.6797 15.7731 11.6797 16.4502ZM14.1797 23.9502L11.6797 20.6299L6.67969 27.3096H26.6797L19.1797 17.3096L14.1797 23.9502ZM30 7.30957H3.35938C2.42188 7.30957 1.6276 7.63509 0.976562 8.28613C0.325521 8.93717 0 9.71842 0 10.6299V30.6299C0 31.5413 0.325521 32.3226 0.976562 32.9736C1.6276 33.6247 2.42188 33.9502 3.35938 33.9502H30C30.9375 33.9502 31.7318 33.6247 32.3828 32.9736C33.0339 32.3226 33.3594 31.5413 33.3594 30.6299V10.6299C33.3594 9.71842 33.0339 8.93717 32.3828 8.28613C31.7318 7.63509 30.9375 7.30957 30 7.30957ZM3.35938 30.6299V10.6299H30V30.6299H3.35938Z" fill="#636388"/>
</svg>
