<svg width="17" height="18" viewBox="0 0 17 18" fill="none" xmlns="http://www.w3.org/2000/svg">
<path d="M0 9C0 9.58659 0.20752 10.0874 0.622559 10.5024C1.0376 10.9175 1.53841 11.125 2.125 11.125C2.40169 11.125 2.66455 11.0724 2.91357 10.9673C3.1626 10.8621 3.38118 10.721 3.56934 10.5439L7.81934 12.9678C7.80827 13.012 7.79997 13.0591 7.79443 13.1089C7.7889 13.1587 7.78613 13.2057 7.78613 13.25C7.78613 13.8366 7.99365 14.3374 8.40869 14.7524C8.82373 15.1675 9.32454 15.375 9.91113 15.375C10.4977 15.375 10.9985 15.1675 11.4136 14.7524C11.8286 14.3374 12.0361 13.8366 12.0361 13.25C12.0361 12.6634 11.8286 12.1626 11.4136 11.7476C10.9985 11.3325 10.4977 11.125 9.91113 11.125C9.63444 11.125 9.37158 11.1776 9.12256 11.2827C8.87354 11.3879 8.65495 11.529 8.4668 11.7061L4.2168 9.28223C4.22786 9.23796 4.23617 9.19092 4.2417 9.14111C4.24723 9.09131 4.25 9.04427 4.25 9C4.25 8.95573 4.24723 8.90869 4.2417 8.85889C4.23617 8.80908 4.22786 8.76204 4.2168 8.71777L8.4668 6.29395C8.65495 6.47103 8.87354 6.61214 9.12256 6.71729C9.37158 6.82243 9.63444 6.875 9.91113 6.875C10.4977 6.875 10.9985 6.66748 11.4136 6.25244C11.8286 5.8374 12.0361 5.33659 12.0361 4.75C12.0361 4.16341 11.8286 3.6626 11.4136 3.24756C10.9985 2.83252 10.4977 2.625 9.91113 2.625C9.32454 2.625 8.82373 2.83252 8.40869 3.24756C7.99365 3.6626 7.78613 4.16341 7.78613 4.75C7.78613 4.79427 7.7889 4.84131 7.79443 4.89111C7.79997 4.94092 7.80827 4.98796 7.81934 5.03223L3.56934 7.45605C3.38118 7.27897 3.1626 7.13786 2.91357 7.03271C2.66455 6.92757 2.40169 6.875 2.125 6.875C1.53841 6.875 1.0376 7.08252 0.622559 7.49756C0.20752 7.9126 0 8.41341 0 9Z" fill="#636388"/>
</svg>
